<svg width="1063" height="117" viewBox="0 0 1063 117" fill="none" xmlns="http://www.w3.org/2000/svg">
<path d="M1015.83 32.2734H1040.84L1041.5 34.1607H1014.89L1015.83 32.2734ZM1062.54 58.9791C1062.8 58.9791 1062.92 59.1679 1062.92 59.5453C1062.92 59.9228 1062.8 60.1115 1062.54 60.1115C1061.35 60.1115 1059.49 60.0486 1056.98 59.9228C1054.46 59.797 1052.64 59.7341 1051.5 59.7341C1050.12 59.7341 1048.36 59.797 1046.22 59.9228C1044.21 60.0486 1042.66 60.1115 1041.6 60.1115C1041.34 60.1115 1041.22 59.9228 1041.22 59.5453C1041.22 59.1679 1041.34 58.9791 1041.6 58.9791C1043.99 58.9791 1045.68 58.759 1046.69 58.3186C1047.76 57.8782 1048.3 57.0918 1048.3 55.9594C1048.3 55.0157 1047.92 53.6946 1047.16 51.996L1026.21 7.73806L1028.57 4.8127L1010.27 48.127C1009.38 50.266 1008.94 52.0275 1008.94 53.4115C1008.94 57.1233 1012.03 58.9791 1018.19 58.9791C1018.51 58.9791 1018.66 59.1679 1018.66 59.5453C1018.66 59.9228 1018.51 60.1115 1018.19 60.1115C1017.06 60.1115 1015.42 60.0486 1013.29 59.9228C1010.89 59.797 1008.82 59.7341 1007.06 59.7341C1005.42 59.7341 1003.53 59.797 1001.4 59.9228C999.508 60.0486 997.935 60.1115 996.677 60.1115C996.362 60.1115 996.205 59.9228 996.205 59.5453C996.205 59.1679 996.362 58.9791 996.677 58.9791C998.438 58.9791 999.917 58.6646 1001.11 58.0355C1002.37 57.3435 1003.53 56.1796 1004.6 54.5439C1005.74 52.8453 1006.96 50.4232 1008.28 47.2777L1028.2 0.283101C1028.32 0.094366 1028.54 0 1028.86 0C1029.17 0 1029.36 0.094366 1029.42 0.283101L1051.69 47.1833C1053.83 51.8387 1055.66 54.9843 1057.17 56.62C1058.68 58.1928 1060.47 58.9791 1062.54 58.9791Z" fill="#B2B2B2"/>
<path d="M985.367 60.1114C983.794 60.1114 980.775 57.4376 976.308 52.0902C971.904 46.6798 966.588 39.2563 960.36 29.8197L965.644 28.2154C971.118 36.0793 975.679 42.2132 979.328 46.6169C983.039 50.9578 986.311 54.1033 989.142 56.0536C991.973 58.0038 994.741 58.979 997.446 58.979C997.635 58.979 997.729 59.1677 997.729 59.5452C997.729 59.9226 997.635 60.1114 997.446 60.1114H985.367ZM961.587 0.849121C966.557 0.849121 970.394 1.98152 973.099 4.24632C975.805 6.51112 977.157 9.53085 977.157 13.3055C977.157 16.6398 976.182 19.691 974.232 22.4591C972.282 25.1643 969.639 27.3347 966.305 28.9704C963.034 30.5432 959.511 31.3295 955.736 31.3295C955.359 31.3295 953.943 31.2352 951.489 31.0464V52.4677C951.489 54.4179 951.678 55.8334 952.056 56.7142C952.433 57.5949 953.157 58.1926 954.226 58.5071C955.358 58.8217 957.12 58.979 959.511 58.979C959.699 58.979 959.794 59.1677 959.794 59.5452C959.794 59.9226 959.699 60.1114 959.511 60.1114C957.56 60.1114 956.019 60.0799 954.887 60.017L948.375 59.9226L941.958 60.017C940.826 60.0799 939.222 60.1114 937.146 60.1114C937.02 60.1114 936.957 59.9226 936.957 59.5452C936.957 59.1677 937.02 58.979 937.146 58.979C939.536 58.979 941.298 58.8217 942.43 58.5071C943.563 58.1297 944.349 57.5006 944.789 56.6198C945.23 55.739 945.45 54.355 945.45 52.4677V8.77592C945.45 6.88859 945.23 5.50454 944.789 4.62379C944.412 3.74303 943.657 3.14537 942.525 2.83082C941.455 2.45335 939.725 2.26462 937.334 2.26462C937.146 2.26462 937.051 2.07589 937.051 1.69842C937.051 1.32096 937.146 1.13222 937.334 1.13222L941.958 1.22659C944.601 1.35241 946.74 1.41532 948.375 1.41532C949.759 1.41532 951.049 1.38386 952.244 1.32095C953.44 1.25804 954.446 1.19513 955.264 1.13222C957.655 0.943487 959.762 0.849121 961.587 0.849121ZM970.74 16.0421C970.74 11.1351 969.639 7.61206 967.437 5.47308C965.298 3.33411 962.153 2.26462 958.001 2.26462C955.547 2.26462 953.849 2.705 952.905 3.58575C951.961 4.46651 951.489 6.25947 951.489 8.96465V28.7816C952.999 29.0333 954.855 29.1591 957.057 29.1591C961.964 29.1591 965.456 28.0896 967.532 25.9506C969.671 23.8117 970.74 20.5088 970.74 16.0421Z" fill="#B2B2B2"/>
<path d="M895.376 61.2443C889.525 61.2443 884.304 59.8917 879.711 57.1865C875.182 54.4184 871.659 50.7067 869.142 46.0513C866.689 41.3329 865.462 36.2057 865.462 30.6695C865.462 24.1897 867.098 18.6535 870.369 14.061C873.64 9.40557 877.824 5.914 882.92 3.58629C888.078 1.25858 893.332 0.0947266 898.679 0.0947266C904.656 0.0947266 909.909 1.51023 914.438 4.34123C918.968 7.10931 922.428 10.7896 924.819 15.3821C927.272 19.9746 928.499 24.8502 928.499 30.0089C928.499 35.7339 926.989 40.9869 923.969 45.7682C920.95 50.5494 916.892 54.3241 911.796 57.0922C906.763 59.8603 901.29 61.2443 895.376 61.2443ZM898.679 59.2626C902.957 59.2626 906.795 58.2246 910.192 56.1485C913.652 54.0724 916.357 51.0527 918.307 47.0893C920.32 43.063 921.327 38.2503 921.327 32.6512C921.327 26.7376 920.226 21.4845 918.024 16.892C915.822 12.2995 912.708 8.71355 908.682 6.13419C904.718 3.55484 900.063 2.26516 894.716 2.26516C887.795 2.26516 882.385 4.4985 878.485 8.96519C874.584 13.4319 872.634 19.5657 872.634 27.3667C872.634 33.2803 873.735 38.6907 875.937 43.5977C878.139 48.4419 881.221 52.2795 885.185 55.1105C889.148 57.8786 893.646 59.2626 898.679 59.2626Z" fill="#B2B2B2"/>
<path d="M794.22 3.3008L796.485 3.48953L795.541 49.8236C795.478 53.1578 796.044 55.517 797.24 56.901C798.435 58.2851 800.542 58.9771 803.562 58.9771C803.688 58.9771 803.751 59.1658 803.751 59.5433C803.751 59.9208 803.688 60.1095 803.562 60.1095C801.801 60.1095 800.448 60.0781 799.504 60.0151L794.409 59.9208L789.501 60.0151C788.621 60.0781 787.362 60.1095 785.727 60.1095C785.601 60.1095 785.538 59.9208 785.538 59.5433C785.538 59.1658 785.601 58.9771 785.727 58.9771C788.369 58.9771 790.256 58.2851 791.389 56.901C792.584 55.4541 793.213 53.0949 793.276 49.8236L794.22 3.3008ZM858.672 58.9771C858.861 58.9771 858.955 59.1658 858.955 59.5433C858.955 59.9208 858.861 60.1095 858.672 60.1095C856.722 60.1095 855.181 60.0781 854.048 60.0151L847.537 59.9208L841.497 60.0151C840.491 60.0781 839.075 60.1095 837.251 60.1095C837.125 60.1095 837.062 59.9208 837.062 59.5433C837.062 59.1658 837.125 58.9771 837.251 58.9771C839.39 58.9771 840.963 58.8198 841.969 58.5053C843.039 58.1278 843.731 57.4987 844.045 56.618C844.423 55.7372 844.549 54.3531 844.423 52.4658L842.63 6.88673L845.744 2.54587L821.209 59.4489C821.083 59.7006 820.831 59.8264 820.454 59.8264C820.139 59.8264 819.856 59.7006 819.604 59.4489L795.918 8.9628C794.849 6.63509 793.528 4.93649 791.955 3.867C790.445 2.79751 788.589 2.26277 786.387 2.26277C786.262 2.26277 786.199 2.07404 786.199 1.69657C786.199 1.31911 786.262 1.13037 786.387 1.13037L789.879 1.22474C790.508 1.28765 791.389 1.3191 792.521 1.3191C793.654 1.3191 794.597 1.28765 795.352 1.22474C796.17 1.16183 796.799 1.13037 797.24 1.13037C798.057 1.13037 798.718 1.44493 799.221 2.07404C799.787 2.64024 800.574 3.96137 801.58 6.03743L823.096 51.3334L820.171 56.2405L843.196 3.48953C843.888 1.91676 844.832 1.13037 846.027 1.13037C846.342 1.13037 846.782 1.16183 847.348 1.22474C847.977 1.28765 848.795 1.3191 849.802 1.3191L854.237 1.22474C854.929 1.16183 855.967 1.13037 857.351 1.13037C857.477 1.13037 857.54 1.31911 857.54 1.69657C857.54 2.07404 857.477 2.26277 857.351 2.26277C854.143 2.26277 851.846 2.7346 850.462 3.67827C849.141 4.55902 848.544 6.25762 848.669 8.77407L850.557 52.4658C850.62 54.4161 850.84 55.8316 851.217 56.7123C851.658 57.5931 852.413 58.1907 853.482 58.5053C854.552 58.8198 856.282 58.9771 858.672 58.9771Z" fill="#B2B2B2"/>
<path d="M712.919 32.2734H737.926L738.587 34.1607H711.976L712.919 32.2734ZM759.631 58.9791C759.882 58.9791 760.008 59.1679 760.008 59.5453C760.008 59.9228 759.882 60.1115 759.631 60.1115C758.435 60.1115 756.58 60.0486 754.063 59.9228C751.547 59.797 749.722 59.7341 748.59 59.7341C747.206 59.7341 745.444 59.797 743.305 59.9228C741.292 60.0486 739.751 60.1115 738.681 60.1115C738.43 60.1115 738.304 59.9228 738.304 59.5453C738.304 59.1679 738.43 58.9791 738.681 58.9791C741.072 58.9791 742.771 58.759 743.777 58.3186C744.847 57.8782 745.381 57.0918 745.381 55.9594C745.381 55.0157 745.004 53.6946 744.249 51.996L723.3 7.73806L725.659 4.8127L707.352 48.127C706.471 50.266 706.03 52.0275 706.03 53.4115C706.03 57.1233 709.113 58.9791 715.278 58.9791C715.593 58.9791 715.75 59.1679 715.75 59.5453C715.75 59.9228 715.593 60.1115 715.278 60.1115C714.146 60.1115 712.51 60.0486 710.371 59.9228C707.981 59.797 705.905 59.7341 704.143 59.7341C702.507 59.7341 700.62 59.797 698.481 59.9228C696.594 60.0486 695.021 60.1115 693.763 60.1115C693.448 60.1115 693.291 59.9228 693.291 59.5453C693.291 59.1679 693.448 58.9791 693.763 58.9791C695.524 58.9791 697.003 58.6646 698.198 58.0355C699.456 57.3435 700.62 56.1796 701.69 54.5439C702.822 52.8453 704.049 50.4232 705.37 47.2777L725.281 0.283101C725.407 0.094366 725.627 0 725.942 0C726.256 0 726.445 0.094366 726.508 0.283101L748.779 47.1833C750.918 51.8387 752.742 54.9843 754.252 56.62C755.762 58.1928 757.555 58.9791 759.631 58.9791Z" fill="#B2B2B2"/>
<path d="M682.453 60.1114C680.88 60.1114 677.861 57.4376 673.394 52.0902C668.99 46.6798 663.674 39.2563 657.446 29.8197L662.73 28.2154C668.204 36.0793 672.765 42.2132 676.414 46.6169C680.125 50.9578 683.397 54.1033 686.228 56.0536C689.059 58.0038 691.827 58.979 694.532 58.979C694.721 58.979 694.815 59.1677 694.815 59.5452C694.815 59.9226 694.721 60.1114 694.532 60.1114H682.453ZM658.673 0.849121C663.643 0.849121 667.48 1.98152 670.185 4.24632C672.891 6.51112 674.243 9.53085 674.243 13.3055C674.243 16.6398 673.268 19.691 671.318 22.4591C669.368 25.1643 666.725 27.3347 663.391 28.9704C660.12 30.5432 656.597 31.3295 652.822 31.3295C652.444 31.3295 651.029 31.2352 648.575 31.0464V52.4677C648.575 54.4179 648.764 55.8334 649.142 56.7142C649.519 57.5949 650.243 58.1926 651.312 58.5071C652.444 58.8217 654.206 58.979 656.597 58.979C656.785 58.979 656.88 59.1677 656.88 59.5452C656.88 59.9226 656.785 60.1114 656.597 60.1114C654.646 60.1114 653.105 60.0799 651.973 60.017L645.461 59.9226L639.044 60.017C637.912 60.0799 636.308 60.1114 634.232 60.1114C634.106 60.1114 634.043 59.9226 634.043 59.5452C634.043 59.1677 634.106 58.979 634.232 58.979C636.622 58.979 638.384 58.8217 639.516 58.5071C640.649 58.1297 641.435 57.5006 641.875 56.6198C642.316 55.739 642.536 54.355 642.536 52.4677V8.77592C642.536 6.88859 642.316 5.50454 641.875 4.62379C641.498 3.74303 640.743 3.14537 639.611 2.83082C638.541 2.45335 636.811 2.26462 634.42 2.26462C634.232 2.26462 634.137 2.07589 634.137 1.69842C634.137 1.32096 634.232 1.13222 634.42 1.13222L639.044 1.22659C641.687 1.35241 643.826 1.41532 645.461 1.41532C646.845 1.41532 648.135 1.38386 649.33 1.32095C650.526 1.25804 651.532 1.19513 652.35 1.13222C654.741 0.943487 656.848 0.849121 658.673 0.849121ZM667.826 16.0421C667.826 11.1351 666.725 7.61206 664.523 5.47308C662.384 3.33411 659.239 2.26462 655.087 2.26462C652.633 2.26462 650.935 2.705 649.991 3.58575C649.047 4.46651 648.575 6.25947 648.575 8.96465V28.7816C650.085 29.0333 651.941 29.1591 654.143 29.1591C659.05 29.1591 662.542 28.0896 664.618 25.9506C666.757 23.8117 667.826 20.5088 667.826 16.0421Z" fill="#B2B2B2"/>
<path d="M593.522 60.4882C591.698 60.4882 589.59 60.3939 587.199 60.2051C586.319 60.1422 585.186 60.0793 583.802 60.0164C582.481 59.9535 581.003 59.922 579.367 59.922L572.95 60.0164C571.818 60.0793 570.245 60.1108 568.232 60.1108C568.106 60.1108 568.043 59.922 568.043 59.5446C568.043 59.1671 568.106 58.9784 568.232 58.9784C570.622 58.9784 572.352 58.8211 573.422 58.5065C574.554 58.192 575.309 57.5943 575.687 56.7136C576.127 55.7699 576.347 54.3544 576.347 52.4671V8.7753C576.347 6.88797 576.159 5.50393 575.781 4.62317C575.404 3.74241 574.649 3.14476 573.516 2.8302C572.447 2.45274 570.717 2.264 568.326 2.264C568.2 2.264 568.137 2.07527 568.137 1.69781C568.137 1.32034 568.2 1.13161 568.326 1.13161L573.044 1.22597C575.687 1.35179 577.794 1.4147 579.367 1.4147C581.758 1.4147 584.117 1.32034 586.444 1.13161C589.213 1.00578 591.131 0.942871 592.201 0.942871C598.744 0.942871 604.531 2.2011 609.564 4.71754C614.597 7.23398 618.498 10.6626 621.266 15.0035C624.097 19.3444 625.512 24.22 625.512 29.6303C625.512 35.7327 624.065 41.1431 621.171 45.8614C618.34 50.5168 614.471 54.1342 609.564 56.7136C604.657 59.23 599.31 60.4882 593.522 60.4882ZM592.578 59.0727C597.611 59.0727 602.078 58.0347 605.978 55.9586C609.879 53.8196 612.899 50.7055 615.038 46.6163C617.239 42.4642 618.34 37.4942 618.34 31.7064C618.34 26.2331 617.302 21.2632 615.226 16.7965C613.15 12.3298 610.193 8.80676 606.356 6.2274C602.518 3.64805 598.083 2.35837 593.05 2.35837C590.345 2.35837 588.237 2.51565 586.728 2.8302C585.281 3.14476 584.211 3.77387 583.519 4.71754C582.827 5.66121 582.481 7.0767 582.481 8.96403V51.429C582.481 53.3164 582.733 54.7948 583.236 55.8643C583.802 56.9337 584.809 57.7516 586.256 58.3178C587.766 58.8211 589.873 59.0727 592.578 59.0727Z" fill="#B2B2B2"/>
<path d="M507.69 3.3008L509.861 3.48953V49.8236C509.861 53.0949 510.427 55.4541 511.559 56.901C512.755 58.2851 514.642 58.9771 517.221 58.9771C517.41 58.9771 517.504 59.1658 517.504 59.5433C517.504 59.9208 517.41 60.1095 517.221 60.1095C515.648 60.1095 514.453 60.0781 513.635 60.0151L508.917 59.9208L504.104 60.0151C503.224 60.0781 501.934 60.1095 500.235 60.1095C500.109 60.1095 500.047 59.9208 500.047 59.5433C500.047 59.1658 500.109 58.9771 500.235 58.9771C502.94 58.9771 504.859 58.2851 505.992 56.901C507.124 55.4541 507.69 53.0949 507.69 49.8236V3.3008ZM555.251 61.2419C555.251 61.3677 555.094 61.4621 554.779 61.525C554.465 61.5879 554.244 61.5565 554.119 61.4306L510.71 8.86843C508.697 6.4149 506.841 4.7163 505.142 3.77264C503.507 2.76606 501.871 2.26277 500.235 2.26277C500.047 2.26277 499.952 2.07404 499.952 1.69657C499.952 1.31911 500.047 1.13037 500.235 1.13037L503.727 1.22474C504.482 1.28765 505.52 1.3191 506.841 1.3191C508.225 1.3191 509.357 1.28765 510.238 1.22474C511.119 1.16183 511.811 1.13037 512.314 1.13037C512.755 1.13037 513.101 1.25619 513.352 1.50783C513.667 1.69657 514.013 2.13695 514.39 2.82897C515.145 3.96137 515.932 5.03086 516.749 6.03743L554.496 52.3715L555.251 61.2419ZM555.251 61.2419L553.081 58.3166V11.5107C553.081 8.23932 552.514 5.88016 551.382 4.4332C550.312 2.98625 548.488 2.26277 545.909 2.26277C545.783 2.26277 545.72 2.07404 545.72 1.69657C545.72 1.31911 545.783 1.13037 545.909 1.13037L549.589 1.22474C551.476 1.35056 553.018 1.41347 554.213 1.41347C555.345 1.41347 556.918 1.35056 558.931 1.22474L562.8 1.13037C562.989 1.13037 563.083 1.31911 563.083 1.69657C563.083 2.07404 562.989 2.26277 562.8 2.26277C560.158 2.26277 558.239 2.98625 557.044 4.4332C555.849 5.88016 555.251 8.23932 555.251 11.5107V61.2419Z" fill="#B2B2B2"/>
<path d="M449.357 32.2734H474.364L475.025 34.1607H448.413L449.357 32.2734ZM496.068 58.9791C496.32 58.9791 496.446 59.1679 496.446 59.5453C496.446 59.9228 496.32 60.1115 496.068 60.1115C494.873 60.1115 493.017 60.0486 490.501 59.9228C487.984 59.797 486.16 59.7341 485.027 59.7341C483.643 59.7341 481.882 59.797 479.743 59.9228C477.73 60.0486 476.188 60.1115 475.119 60.1115C474.867 60.1115 474.741 59.9228 474.741 59.5453C474.741 59.1679 474.867 58.9791 475.119 58.9791C477.51 58.9791 479.208 58.759 480.215 58.3186C481.284 57.8782 481.819 57.0918 481.819 55.9594C481.819 55.0157 481.441 53.6946 480.687 51.996L459.737 7.73806L462.096 4.8127L443.789 48.127C442.908 50.266 442.468 52.0275 442.468 53.4115C442.468 57.1233 445.551 58.9791 451.716 58.9791C452.031 58.9791 452.188 59.1679 452.188 59.5453C452.188 59.9228 452.031 60.1115 451.716 60.1115C450.584 60.1115 448.948 60.0486 446.809 59.9228C444.418 59.797 442.342 59.7341 440.581 59.7341C438.945 59.7341 437.058 59.797 434.919 59.9228C433.031 60.0486 431.459 60.1115 430.2 60.1115C429.886 60.1115 429.729 59.9228 429.729 59.5453C429.729 59.1679 429.886 58.9791 430.2 58.9791C431.962 58.9791 433.44 58.6646 434.636 58.0355C435.894 57.3435 437.058 56.1796 438.127 54.5439C439.26 52.8453 440.486 50.4232 441.807 47.2777L461.719 0.283101C461.845 0.094366 462.065 0 462.379 0C462.694 0 462.883 0.094366 462.946 0.283101L485.216 47.1833C487.355 51.8387 489.179 54.9843 490.689 56.62C492.199 58.1928 493.992 58.9791 496.068 58.9791Z" fill="#B2B2B2"/>
<path d="M419.036 53.7869C419.036 58.8827 418.596 62.972 417.715 66.0546C416.897 69.2002 415.513 71.7481 413.563 73.6983C411.613 75.6486 408.813 77.4101 405.164 78.9828L405.07 79.0772C404.944 79.0772 404.787 78.9199 404.598 78.6054C404.472 78.2908 404.472 78.1021 404.598 78.0392C407.681 76.2777 409.82 73.6354 411.015 70.1124C412.273 66.6523 412.903 62.0598 412.903 56.3348V8.77407C412.903 6.88674 412.682 5.50269 412.242 4.62194C411.864 3.74118 411.11 3.14352 409.977 2.82897C408.845 2.4515 407.083 2.26277 404.693 2.26277C404.567 2.26277 404.504 2.07404 404.504 1.69657C404.504 1.31911 404.567 1.13037 404.693 1.13037L409.6 1.22474C412.242 1.35056 414.318 1.41347 415.828 1.41347C417.464 1.41347 419.477 1.35056 421.867 1.22474L426.019 1.13037C426.145 1.13037 426.208 1.31911 426.208 1.69657C426.208 2.07404 426.145 2.26277 426.019 2.26277C423.943 2.26277 422.434 2.4515 421.49 2.82897C420.546 3.20644 419.886 3.867 419.508 4.81067C419.194 5.69142 419.036 7.07546 419.036 8.9628V53.7869Z" fill="#B2B2B2"/>
<path d="M353.252 60.1095C353.126 60.1095 353.063 59.9208 353.063 59.5433C353.063 59.1658 353.126 58.9771 353.252 58.9771C355.643 58.9771 357.373 58.8198 358.442 58.5053C359.575 58.1907 360.33 57.5931 360.707 56.7123C361.148 55.7686 361.368 54.3531 361.368 52.4658V8.77407C361.368 6.88674 361.148 5.50269 360.707 4.62194C360.33 3.74118 359.575 3.14352 358.442 2.82897C357.373 2.4515 355.643 2.26277 353.252 2.26277C353.126 2.26277 353.063 2.07404 353.063 1.69657C353.063 1.31911 353.126 1.13037 353.252 1.13037H391.188C391.754 1.13037 392.037 1.41347 392.037 1.97967L392.226 13.5868C392.226 13.7755 392.037 13.9013 391.659 13.9642C391.345 13.9642 391.188 13.8699 391.188 13.6811C390.999 10.3468 389.992 7.76749 388.168 5.94307C386.343 4.05573 383.921 3.11207 380.902 3.11207H375.145C372.943 3.11207 371.308 3.3008 370.238 3.67827C369.169 3.99282 368.414 4.55902 367.973 5.37687C367.596 6.19471 367.407 7.48439 367.407 9.2459V52.0883C367.407 53.7869 367.596 55.0766 367.973 55.9574C368.414 56.7752 369.137 57.3414 370.144 57.656C371.15 57.9705 372.723 58.1278 374.862 58.1278H382.412C385.431 58.1278 387.948 57.0583 389.961 54.9194C391.974 52.7804 393.327 49.8236 394.019 46.0489C394.019 45.9231 394.144 45.8602 394.396 45.8602C394.585 45.8602 394.742 45.9231 394.868 46.0489C395.057 46.1118 395.151 46.1747 395.151 46.2376C394.585 50.201 394.302 54.3532 394.302 58.694C394.302 59.1973 394.176 59.5748 393.924 59.8264C393.735 60.0151 393.358 60.1095 392.792 60.1095H353.252ZM387.507 38.1221C387.507 35.354 386.815 33.3723 385.431 32.177C384.11 30.9817 381.877 30.384 378.731 30.384H364.576V28.4023H379.014C382.034 28.4023 384.173 27.899 385.431 26.8925C386.752 25.8859 387.413 24.1873 387.413 21.7967C387.413 21.6708 387.602 21.6079 387.979 21.6079C388.357 21.6079 388.545 21.6708 388.545 21.7967L388.451 29.4404C388.451 31.2648 388.482 32.6488 388.545 33.5925L388.64 38.1221C388.64 38.2479 388.451 38.3108 388.073 38.3108C387.696 38.3108 387.507 38.2479 387.507 38.1221Z" fill="#B2B2B2"/>
<path d="M316.335 52.0883C316.335 53.9128 316.524 55.2339 316.901 56.0517C317.279 56.8696 317.971 57.4358 318.977 57.7503C319.984 58.002 321.619 58.1278 323.884 58.1278H334.17C337.756 58.1278 340.619 57.0269 342.758 54.825C344.897 52.6231 346.312 49.5719 347.004 45.6714C347.004 45.4827 347.161 45.4198 347.476 45.4827C347.853 45.4827 348.042 45.5771 348.042 45.7658C347.476 50.9874 347.193 55.2968 347.193 58.694C347.193 59.1973 347.098 59.5748 346.91 59.8264C346.721 60.0151 346.344 60.1095 345.777 60.1095H302.18C302.054 60.1095 301.991 59.9208 301.991 59.5433C301.991 59.1658 302.054 58.9771 302.18 58.9771C304.571 58.9771 306.301 58.8198 307.37 58.5053C308.502 58.1907 309.257 57.5931 309.635 56.7123C310.012 55.7686 310.201 54.3531 310.201 52.4658V8.77407C310.201 6.88674 310.012 5.50269 309.635 4.62194C309.257 3.74118 308.502 3.14352 307.37 2.82897C306.301 2.4515 304.571 2.26277 302.18 2.26277C302.054 2.26277 301.991 2.07404 301.991 1.69657C301.991 1.31911 302.054 1.13037 302.18 1.13037L306.804 1.22474C309.446 1.35056 311.585 1.41347 313.221 1.41347C314.982 1.41347 317.184 1.35056 319.827 1.22474L324.356 1.13037C324.545 1.13037 324.639 1.31911 324.639 1.69657C324.639 2.07404 324.545 2.26277 324.356 2.26277C322.028 2.26277 320.298 2.4515 319.166 2.82897C318.034 3.14352 317.279 3.77263 316.901 4.7163C316.524 5.59706 316.335 6.9811 316.335 8.86843V52.0883Z" fill="#B2B2B2"/>
<path d="M251.869 32.2734H276.877L277.537 34.1607H250.926L251.869 32.2734ZM298.581 58.9791C298.833 58.9791 298.958 59.1679 298.958 59.5453C298.958 59.9228 298.833 60.1115 298.581 60.1115C297.386 60.1115 295.53 60.0486 293.013 59.9228C290.497 59.797 288.672 59.7341 287.54 59.7341C286.156 59.7341 284.394 59.797 282.256 59.9228C280.242 60.0486 278.701 60.1115 277.632 60.1115C277.38 60.1115 277.254 59.9228 277.254 59.5453C277.254 59.1679 277.38 58.9791 277.632 58.9791C280.022 58.9791 281.721 58.759 282.727 58.3186C283.797 57.8782 284.332 57.0918 284.332 55.9594C284.332 55.0157 283.954 53.6946 283.199 51.996L262.25 7.73806L264.609 4.8127L246.302 48.127C245.421 50.266 244.981 52.0275 244.981 53.4115C244.981 57.1233 248.063 58.9791 254.229 58.9791C254.543 58.9791 254.7 59.1679 254.7 59.5453C254.7 59.9228 254.543 60.1115 254.229 60.1115C253.096 60.1115 251.461 60.0486 249.322 59.9228C246.931 59.797 244.855 59.7341 243.093 59.7341C241.458 59.7341 239.57 59.797 237.431 59.9228C235.544 60.0486 233.971 60.1115 232.713 60.1115C232.398 60.1115 232.241 59.9228 232.241 59.5453C232.241 59.1679 232.398 58.9791 232.713 58.9791C234.475 58.9791 235.953 58.6646 237.148 58.0355C238.406 57.3435 239.57 56.1796 240.64 54.5439C241.772 52.8453 242.999 50.4232 244.32 47.2777L264.232 0.283101C264.357 0.094366 264.578 0 264.892 0C265.207 0 265.395 0.094366 265.458 0.283101L287.729 47.1833C289.868 51.8387 291.692 54.9843 293.202 56.62C294.712 58.1928 296.505 58.9791 298.581 58.9791Z" fill="#B2B2B2"/>
<path d="M201.229 61.1506C199.971 61.1506 198.964 60.7731 198.21 60.0182C197.455 59.2632 197.077 58.2881 197.077 57.0928C197.077 55.8975 197.455 54.9538 198.21 54.2618C198.964 53.5069 199.971 53.1294 201.229 53.1294C202.55 53.1294 203.557 53.4754 204.249 54.1674C204.941 54.8594 205.287 55.8346 205.287 57.0928C205.287 58.351 204.941 59.3576 204.249 60.1125C203.557 60.8045 202.55 61.1506 201.229 61.1506Z" fill="#B2B2B2"/>
<path d="M144.877 32.2734H169.884L170.545 34.1607H143.934L144.877 32.2734ZM191.589 58.9791C191.84 58.9791 191.966 59.1679 191.966 59.5453C191.966 59.9228 191.84 60.1115 191.589 60.1115C190.393 60.1115 188.538 60.0486 186.021 59.9228C183.505 59.797 181.68 59.7341 180.548 59.7341C179.164 59.7341 177.402 59.797 175.263 59.9228C173.25 60.0486 171.709 60.1115 170.639 60.1115C170.388 60.1115 170.262 59.9228 170.262 59.5453C170.262 59.1679 170.388 58.9791 170.639 58.9791C173.03 58.9791 174.729 58.759 175.735 58.3186C176.805 57.8782 177.339 57.0918 177.339 55.9594C177.339 55.0157 176.962 53.6946 176.207 51.996L155.258 7.73806L157.617 4.8127L139.31 48.127C138.429 50.266 137.989 52.0275 137.989 53.4115C137.989 57.1233 141.071 58.9791 147.236 58.9791C147.551 58.9791 147.708 59.1679 147.708 59.5453C147.708 59.9228 147.551 60.1115 147.236 60.1115C146.104 60.1115 144.468 60.0486 142.329 59.9228C139.939 59.797 137.863 59.7341 136.101 59.7341C134.466 59.7341 132.578 59.797 130.439 59.9228C128.552 60.0486 126.979 60.1115 125.721 60.1115C125.406 60.1115 125.249 59.9228 125.249 59.5453C125.249 59.1679 125.406 58.9791 125.721 58.9791C127.482 58.9791 128.961 58.6646 130.156 58.0355C131.414 57.3435 132.578 56.1796 133.648 54.5439C134.78 52.8453 136.007 50.4232 137.328 47.2777L157.239 0.283101C157.365 0.094366 157.585 0 157.9 0C158.214 0 158.403 0.094366 158.466 0.283101L180.737 47.1833C182.876 51.8387 184.7 54.9843 186.21 56.62C187.72 58.1928 189.513 58.9791 191.589 58.9791Z" fill="#B2B2B2"/>
<path d="M114.411 60.1114C112.838 60.1114 109.819 57.4376 105.352 52.0902C100.948 46.6798 95.6321 39.2563 89.4039 29.8197L94.6884 28.2154C100.162 36.0793 104.723 42.2132 108.372 46.6169C112.083 50.9578 115.355 54.1033 118.186 56.0536C121.017 58.0038 123.785 58.979 126.49 58.979C126.679 58.979 126.773 59.1677 126.773 59.5452C126.773 59.9226 126.679 60.1114 126.49 60.1114H114.411ZM90.6307 0.849121C95.6006 0.849121 99.4382 1.98152 102.143 4.24632C104.849 6.51112 106.201 9.53085 106.201 13.3055C106.201 16.6398 105.226 19.691 103.276 22.4591C101.326 25.1643 98.6833 27.3347 95.349 28.9704C92.0776 30.5432 88.5546 31.3295 84.7799 31.3295C84.4025 31.3295 82.987 31.2352 80.5334 31.0464V52.4677C80.5334 54.4179 80.7222 55.8334 81.0996 56.7142C81.4771 57.5949 82.2006 58.1926 83.2701 58.5071C84.4025 58.8217 86.164 58.979 88.5546 58.979C88.7433 58.979 88.8377 59.1677 88.8377 59.5452C88.8377 59.9226 88.7433 60.1114 88.5546 60.1114C86.6044 60.1114 85.063 60.0799 83.9306 60.017L77.4193 59.9226L71.0024 60.017C69.87 60.0799 68.2658 60.1114 66.1897 60.1114C66.0639 60.1114 66.001 59.9226 66.001 59.5452C66.001 59.1677 66.0639 58.979 66.1897 58.979C68.5803 58.979 70.3418 58.8217 71.4742 58.5071C72.6066 58.1297 73.393 57.5006 73.8334 56.6198C74.2738 55.739 74.494 54.355 74.494 52.4677V8.77592C74.494 6.88859 74.2738 5.50454 73.8334 4.62379C73.4559 3.74303 72.701 3.14537 71.5686 2.83082C70.4991 2.45335 68.7691 2.26462 66.3784 2.26462C66.1897 2.26462 66.0953 2.07589 66.0953 1.69842C66.0953 1.32096 66.1897 1.13222 66.3784 1.13222L71.0024 1.22659C73.6447 1.35241 75.7836 1.41532 77.4193 1.41532C78.8034 1.41532 80.0931 1.38386 81.2884 1.32095C82.4837 1.25804 83.4903 1.19513 84.3081 1.13222C86.6987 0.943487 88.8062 0.849121 90.6307 0.849121ZM99.7842 16.0421C99.7842 11.1351 98.6833 7.61206 96.4814 5.47308C94.3424 3.33411 91.1969 2.26462 87.0447 2.26462C84.5912 2.26462 82.8926 2.705 81.9489 3.58575C81.0053 4.46651 80.5334 6.25947 80.5334 8.96465V28.7816C82.0433 29.0333 83.8992 29.1591 86.1011 29.1591C91.0081 29.1591 94.4997 28.0896 96.5758 25.9506C98.7147 23.8117 99.7842 20.5088 99.7842 16.0421Z" fill="#B2B2B2"/>
<path d="M25.479 60.4882C23.6546 60.4882 21.547 60.3939 19.1564 60.2051C18.2757 60.1422 17.1433 60.0793 15.7592 60.0164C14.4381 59.9535 12.9597 59.922 11.324 59.922L4.90707 60.0164C3.77467 60.0793 2.20189 60.1108 0.188733 60.1108C0.062911 60.1108 0 59.922 0 59.5446C0 59.1671 0.062911 58.9784 0.188733 58.9784C2.57935 58.9784 4.30941 58.8211 5.3789 58.5065C6.5113 58.192 7.26623 57.5943 7.6437 56.7136C8.08408 55.7699 8.30426 54.3544 8.30426 52.4671V8.7753C8.30426 6.88797 8.11553 5.50393 7.73806 4.62317C7.3606 3.74241 6.60566 3.14476 5.47327 2.8302C4.40378 2.45274 2.67372 2.264 0.2831 2.264C0.157278 2.264 0.0943667 2.07527 0.0943667 1.69781C0.0943667 1.32034 0.157278 1.13161 0.2831 1.13161L5.00143 1.22597C7.6437 1.35179 9.75122 1.4147 11.324 1.4147C13.7146 1.4147 16.0738 1.32034 18.4015 1.13161C21.1696 1.00578 23.0884 0.942871 24.1579 0.942871C30.7006 0.942871 36.4884 2.2011 41.5213 4.71754C46.5542 7.23398 50.4547 10.6626 53.2228 15.0035C56.0538 19.3444 57.4693 24.22 57.4693 29.6303C57.4693 35.7327 56.0223 41.1431 53.1284 45.8614C50.2974 50.5168 46.4284 54.1342 41.5213 56.7136C36.6143 59.23 31.2668 60.4882 25.479 60.4882ZM24.5353 59.0727C29.5682 59.0727 34.0349 58.0347 37.9354 55.9586C41.8359 53.8196 44.8556 50.7055 46.9946 46.6163C49.1965 42.4642 50.2974 37.4942 50.2974 31.7064C50.2974 26.2331 49.2594 21.2632 47.1833 16.7965C45.1073 12.3298 42.1504 8.80676 38.3129 6.2274C34.4753 3.64805 30.04 2.35837 25.0072 2.35837C22.302 2.35837 20.1945 2.51565 18.6846 2.8302C17.2376 3.14476 16.1682 3.77387 15.4761 4.71754C14.7841 5.66121 14.4381 7.0767 14.4381 8.96403V51.429C14.4381 53.3164 14.6897 54.7948 15.193 55.8643C15.7592 56.9337 16.7658 57.7516 18.2128 58.3178C19.7226 58.8211 21.8301 59.0727 24.5353 59.0727Z" fill="#B2B2B2"/>
<path d="M836.452 111.486C836.452 112.469 836.255 113.314 835.862 114.022C835.469 114.71 834.958 115.27 834.329 115.703C833.719 116.135 833.021 116.45 832.235 116.646C831.468 116.843 830.701 116.941 829.935 116.941C829.148 116.941 828.47 116.863 827.9 116.705C827.33 116.548 826.809 116.401 826.337 116.263C826.022 116.165 825.737 116.086 825.482 116.027C825.226 115.948 824.971 115.909 824.715 115.909V112.547H825.01C825.01 113.294 825.197 113.894 825.57 114.346C825.963 114.779 826.416 115.113 826.927 115.349C827.438 115.585 827.949 115.742 828.46 115.821C828.971 115.88 829.345 115.909 829.581 115.909C830.426 115.909 831.154 115.791 831.763 115.555C832.372 115.3 832.874 114.975 833.267 114.582C833.66 114.169 833.945 113.717 834.122 113.226C834.319 112.734 834.417 112.233 834.417 111.722C834.417 111.073 834.279 110.532 834.004 110.1C833.729 109.647 833.365 109.254 832.913 108.92C832.481 108.586 831.979 108.301 831.409 108.065C830.839 107.829 830.259 107.593 829.669 107.357C829.001 107.102 828.342 106.836 827.693 106.561C827.045 106.286 826.465 105.951 825.954 105.558C825.442 105.145 825.03 104.664 824.715 104.113C824.4 103.543 824.243 102.845 824.243 102.019C824.243 101.154 824.41 100.407 824.745 99.7783C825.079 99.1295 825.521 98.5987 826.072 98.1858C826.642 97.773 827.281 97.4682 827.988 97.2717C828.716 97.0554 829.453 96.9473 830.2 96.9473C830.711 96.9473 831.193 96.9866 831.645 97.0652C832.097 97.1242 832.53 97.2028 832.943 97.3011C833.277 97.3798 833.601 97.4486 833.916 97.5076C834.23 97.5469 834.535 97.5665 834.83 97.5665V100.604H834.535C834.496 99.5817 834.093 98.8936 833.326 98.5397C832.559 98.1662 831.498 97.9794 830.141 97.9794C829.355 97.9794 828.706 98.117 828.195 98.3923C827.703 98.6478 827.31 98.9722 827.015 99.3654C826.72 99.7389 826.514 100.152 826.396 100.604C826.298 101.036 826.248 101.42 826.248 101.754C826.248 102.305 826.366 102.776 826.602 103.17C826.858 103.563 827.192 103.907 827.605 104.202C828.018 104.497 828.49 104.762 829.021 104.998C829.571 105.234 830.141 105.46 830.731 105.676C831.399 105.932 832.078 106.207 832.766 106.502C833.454 106.797 834.063 107.16 834.594 107.593C835.144 108.026 835.587 108.556 835.921 109.185C836.275 109.815 836.452 110.581 836.452 111.486Z" fill="#B2B2B2"/>
<path d="M814.526 116.408H814.673C815.145 116.408 815.381 116.192 815.381 115.76C815.381 115.602 815.352 115.435 815.293 115.258L812.639 108.092H807.478L804.912 115.14C804.853 115.298 804.824 115.445 804.824 115.583C804.824 115.838 804.893 116.045 805.03 116.202C805.168 116.34 805.315 116.408 805.473 116.408H805.62V116.703H802.347V116.408H802.494C802.75 116.408 802.995 116.261 803.231 115.966C803.487 115.651 803.693 115.288 803.851 114.875L810.604 96.8862L817.209 114.698C817.347 115.091 817.534 115.474 817.77 115.848C818.025 116.222 818.35 116.408 818.743 116.408H818.89V116.703H814.526V116.408ZM807.773 107.09H812.314L810.043 100.926L807.773 107.09Z" fill="#B2B2B2"/>
<path d="M797.527 111.486C797.527 112.469 797.33 113.314 796.937 114.022C796.544 114.71 796.033 115.27 795.404 115.703C794.794 116.135 794.096 116.45 793.31 116.646C792.543 116.843 791.777 116.941 791.01 116.941C790.223 116.941 789.545 116.863 788.975 116.705C788.405 116.548 787.884 116.401 787.412 116.263C787.098 116.165 786.813 116.086 786.557 116.027C786.301 115.948 786.046 115.909 785.79 115.909V112.547H786.085C786.085 113.294 786.272 113.894 786.645 114.346C787.039 114.779 787.491 115.113 788.002 115.349C788.513 115.585 789.024 115.742 789.535 115.821C790.047 115.88 790.42 115.909 790.656 115.909C791.501 115.909 792.229 115.791 792.838 115.555C793.448 115.3 793.949 114.975 794.342 114.582C794.735 114.169 795.02 113.717 795.197 113.226C795.394 112.734 795.492 112.233 795.492 111.722C795.492 111.073 795.355 110.532 795.079 110.1C794.804 109.647 794.44 109.254 793.988 108.92C793.556 108.586 793.054 108.301 792.484 108.065C791.914 107.829 791.334 107.593 790.744 107.357C790.076 107.102 789.417 106.836 788.769 106.561C788.12 106.286 787.54 105.951 787.029 105.558C786.518 105.145 786.105 104.664 785.79 104.113C785.476 103.543 785.318 102.845 785.318 102.019C785.318 101.154 785.485 100.407 785.82 99.7783C786.154 99.1295 786.596 98.5987 787.147 98.1858C787.717 97.773 788.356 97.4682 789.064 97.2717C789.791 97.0554 790.528 96.9473 791.275 96.9473C791.786 96.9473 792.268 96.9866 792.72 97.0652C793.172 97.1242 793.605 97.2028 794.018 97.3011C794.352 97.3798 794.676 97.4486 794.991 97.5076C795.305 97.5469 795.61 97.5665 795.905 97.5665V100.604H795.61C795.571 99.5817 795.168 98.8936 794.401 98.5397C793.634 98.1662 792.573 97.9794 791.216 97.9794C790.43 97.9794 789.781 98.117 789.27 98.3923C788.778 98.6478 788.385 98.9722 788.09 99.3654C787.796 99.7389 787.589 100.152 787.471 100.604C787.373 101.036 787.324 101.42 787.324 101.754C787.324 102.305 787.442 102.776 787.678 103.17C787.933 103.563 788.267 103.907 788.68 104.202C789.093 104.497 789.565 104.762 790.096 104.998C790.646 105.234 791.216 105.46 791.806 105.676C792.475 105.932 793.153 106.207 793.841 106.502C794.529 106.797 795.138 107.16 795.669 107.593C796.22 108.026 796.662 108.556 796.996 109.185C797.35 109.815 797.527 110.581 797.527 111.486Z" fill="#B2B2B2"/>
<path d="M773.813 97.2412H778.031V97.5361H777.883C777.745 97.5361 777.618 97.5951 777.5 97.713C777.382 97.8113 777.283 97.9391 777.205 98.0964C777.126 98.234 777.057 98.4011 776.998 98.5977C776.959 98.7747 776.939 98.9319 776.939 99.0696V114.788C776.939 114.945 776.959 115.122 776.998 115.318C777.038 115.495 777.097 115.662 777.175 115.82C777.274 115.977 777.372 116.115 777.47 116.232C777.588 116.35 777.726 116.409 777.883 116.409H778.031V116.704H773.813V116.409H773.961C774.118 116.409 774.256 116.36 774.374 116.262C774.492 116.144 774.59 116.006 774.669 115.849C774.767 115.672 774.836 115.495 774.875 115.318C774.914 115.122 774.934 114.945 774.934 114.788V99.0696C774.934 98.9319 774.914 98.7747 774.875 98.5977C774.836 98.4208 774.767 98.2537 774.669 98.0964C774.59 97.9391 774.492 97.8113 774.374 97.713C774.256 97.5951 774.118 97.5361 773.961 97.5361H773.813V97.2412Z" fill="#B2B2B2"/>
<path d="M757.061 116.409H757.209V116.704H753.051V116.409H753.198C753.336 116.409 753.464 116.35 753.582 116.232C753.7 116.115 753.798 115.977 753.876 115.82C753.975 115.662 754.044 115.495 754.083 115.318C754.122 115.122 754.142 114.945 754.142 114.788V99.0696C754.142 98.9319 754.122 98.7747 754.083 98.5977C754.044 98.4208 753.975 98.2537 753.876 98.0964C753.798 97.9391 753.7 97.8113 753.582 97.713C753.464 97.5951 753.336 97.5361 753.198 97.5361H753.051V97.2412H758.182C760.148 97.2412 761.662 97.6246 762.723 98.3913C763.805 99.158 764.345 100.288 764.345 101.783C764.345 102.53 764.218 103.188 763.962 103.758C763.726 104.309 763.402 104.791 762.989 105.203C762.576 105.597 762.084 105.921 761.514 106.177C760.964 106.412 760.374 106.589 759.745 106.707L761.868 109.951C762.379 110.738 762.9 111.514 763.431 112.281C763.962 113.028 764.483 113.805 764.994 114.611C765.132 114.807 765.279 115.014 765.436 115.23C765.613 115.446 765.79 115.643 765.967 115.82C766.164 115.997 766.36 116.144 766.557 116.262C766.773 116.36 766.989 116.409 767.206 116.409V116.704H765.938C765.151 116.704 764.503 116.518 763.991 116.144C763.5 115.751 763.087 115.299 762.753 114.788C761.868 113.49 760.983 112.173 760.099 110.836C759.234 109.499 758.369 108.182 757.504 106.884C757.287 106.865 757.052 106.845 756.796 106.825C756.56 106.786 756.334 106.747 756.118 106.707V114.788C756.118 114.945 756.137 115.122 756.177 115.318C756.216 115.495 756.275 115.662 756.354 115.82C756.452 115.977 756.55 116.115 756.648 116.232C756.766 116.35 756.904 116.409 757.061 116.409ZM756.118 98.2439V105.734H756.265C756.422 105.754 756.668 105.774 757.002 105.793C757.356 105.793 757.789 105.793 758.3 105.793C758.713 105.793 759.145 105.734 759.597 105.616C760.069 105.479 760.502 105.262 760.895 104.967C761.308 104.653 761.642 104.25 761.898 103.758C762.173 103.267 762.31 102.648 762.31 101.901C762.31 101.153 762.163 100.544 761.868 100.072C761.593 99.6004 761.2 99.2268 760.689 98.9516C760.197 98.6764 759.597 98.4896 758.89 98.3913C758.182 98.293 757.405 98.2439 756.56 98.2439H756.118Z" fill="#B2B2B2"/>
<path d="M732.913 116.409H733.061V116.704H729.787V116.409H729.935C730.073 116.409 730.2 116.35 730.318 116.232C730.456 116.115 730.564 115.977 730.643 115.82C730.721 115.662 730.78 115.495 730.82 115.318C730.879 115.122 730.908 114.945 730.908 114.788V99.0696C730.908 98.9319 730.888 98.7747 730.849 98.5977C730.829 98.4208 730.78 98.2537 730.702 98.0964C730.623 97.9391 730.515 97.8113 730.377 97.713C730.24 97.5951 730.073 97.5361 729.876 97.5361H729.729V97.2412H732.707L743.412 114.109V99.0696C743.412 98.9319 743.382 98.7747 743.323 98.5977C743.284 98.4208 743.215 98.2537 743.117 98.0964C743.038 97.9391 742.94 97.8113 742.822 97.713C742.704 97.5951 742.566 97.5361 742.409 97.5361H742.262V97.2412H745.564V97.5361H745.417C745.26 97.5361 745.122 97.5951 745.004 97.713C744.886 97.8113 744.778 97.9391 744.68 98.0964C744.601 98.2537 744.542 98.4208 744.503 98.5977C744.463 98.7747 744.444 98.9319 744.444 99.0696V116.704H742.615L731.94 99.7773V114.788C731.94 114.945 731.96 115.122 731.999 115.318C732.038 115.495 732.098 115.662 732.176 115.82C732.274 115.977 732.383 116.115 732.501 116.232C732.618 116.35 732.756 116.409 732.913 116.409Z" fill="#B2B2B2"/>
<path d="M712.601 96.9473C714.134 96.9473 715.51 97.2225 716.729 97.773C717.948 98.3038 718.98 99.0312 719.826 99.9552C720.691 100.86 721.349 101.921 721.801 103.14C722.273 104.339 722.509 105.598 722.509 106.915C722.509 108.389 722.234 109.746 721.683 110.984C721.153 112.223 720.415 113.284 719.472 114.169C718.528 115.054 717.427 115.752 716.169 116.263C714.93 116.754 713.603 117 712.188 117C710.674 117 709.308 116.725 708.089 116.174C706.89 115.624 705.867 114.897 705.022 113.992C704.196 113.088 703.557 112.046 703.105 110.866C702.653 109.687 702.427 108.458 702.427 107.18C702.427 105.922 702.653 104.683 703.105 103.464C703.557 102.226 704.216 101.125 705.081 100.162C705.965 99.1983 707.037 98.4217 708.295 97.832C709.553 97.2422 710.989 96.9473 712.601 96.9473ZM712.571 115.968C713.888 115.909 715.038 115.614 716.021 115.083C717.024 114.533 717.86 113.845 718.528 113.019C719.196 112.174 719.688 111.25 720.003 110.247C720.337 109.244 720.504 108.252 720.504 107.269C720.504 106.187 720.307 105.096 719.914 103.995C719.521 102.894 718.961 101.902 718.233 101.017C717.506 100.112 716.631 99.3851 715.609 98.8346C714.606 98.2645 713.475 97.9794 712.217 97.9794C710.998 97.9794 709.907 98.2546 708.944 98.8051C707.981 99.3359 707.155 100.024 706.467 100.869C705.798 101.715 705.287 102.658 704.933 103.7C704.579 104.742 704.403 105.765 704.403 106.767C704.403 107.849 704.609 108.94 705.022 110.041C705.435 111.122 706.005 112.105 706.732 112.99C707.46 113.874 708.315 114.592 709.298 115.142C710.3 115.693 711.392 115.968 712.571 115.968Z" fill="#B2B2B2"/>
<path d="M695.431 111.486C695.431 112.469 695.235 113.314 694.842 114.022C694.448 114.71 693.937 115.27 693.308 115.703C692.699 116.135 692.001 116.45 691.214 116.646C690.448 116.843 689.681 116.941 688.914 116.941C688.128 116.941 687.449 116.863 686.879 116.705C686.309 116.548 685.788 116.401 685.316 116.263C685.002 116.165 684.717 116.086 684.461 116.027C684.206 115.948 683.95 115.909 683.695 115.909V112.547H683.989C683.989 113.294 684.176 113.894 684.55 114.346C684.943 114.779 685.395 115.113 685.906 115.349C686.417 115.585 686.929 115.742 687.44 115.821C687.951 115.88 688.324 115.909 688.56 115.909C689.406 115.909 690.133 115.791 690.742 115.555C691.352 115.3 691.853 114.975 692.247 114.582C692.64 114.169 692.925 113.717 693.102 113.226C693.298 112.734 693.397 112.233 693.397 111.722C693.397 111.073 693.259 110.532 692.984 110.1C692.709 109.647 692.345 109.254 691.893 108.92C691.46 108.586 690.959 108.301 690.389 108.065C689.819 107.829 689.239 107.593 688.649 107.357C687.98 107.102 687.322 106.836 686.673 106.561C686.024 106.286 685.444 105.951 684.933 105.558C684.422 105.145 684.009 104.664 683.695 104.113C683.38 103.543 683.223 102.845 683.223 102.019C683.223 101.154 683.39 100.407 683.724 99.7783C684.058 99.1295 684.501 98.5987 685.051 98.1858C685.621 97.773 686.26 97.4682 686.968 97.2717C687.695 97.0554 688.432 96.9473 689.18 96.9473C689.691 96.9473 690.172 96.9866 690.625 97.0652C691.077 97.1242 691.509 97.2028 691.922 97.3011C692.256 97.3798 692.581 97.4486 692.895 97.5076C693.21 97.5469 693.515 97.5665 693.809 97.5665V100.604H693.515C693.475 99.5817 693.072 98.8936 692.305 98.5397C691.539 98.1662 690.477 97.9794 689.121 97.9794C688.334 97.9794 687.685 98.117 687.174 98.3923C686.683 98.6478 686.29 98.9722 685.995 99.3654C685.7 99.7389 685.493 100.152 685.375 100.604C685.277 101.036 685.228 101.42 685.228 101.754C685.228 102.305 685.346 102.776 685.582 103.17C685.837 103.563 686.172 103.907 686.584 104.202C686.997 104.497 687.469 104.762 688 104.998C688.55 105.234 689.121 105.46 689.71 105.676C690.379 105.932 691.057 106.207 691.745 106.502C692.433 106.797 693.043 107.16 693.573 107.593C694.124 108.026 694.566 108.556 694.901 109.185C695.254 109.815 695.431 110.581 695.431 111.486Z" fill="#B2B2B2"/>
<path d="M652.078 116.409H652.226C652.383 116.409 652.52 116.36 652.638 116.262C652.756 116.144 652.855 116.006 652.933 115.849C653.032 115.692 653.1 115.525 653.14 115.348C653.199 115.171 653.228 115.004 653.228 114.846V99.0696C653.228 98.9319 653.199 98.7747 653.14 98.5977C653.1 98.4208 653.032 98.2537 652.933 98.0964C652.855 97.9391 652.756 97.8113 652.638 97.713C652.52 97.5951 652.383 97.5361 652.226 97.5361H652.078V97.2412H663.432V99.9837H663.137C663.097 99.5316 662.92 99.1384 662.606 98.8042C662.291 98.4503 661.8 98.2733 661.131 98.2733H655.204V105.734H660.099C660.551 105.734 660.925 105.597 661.22 105.321C661.534 105.046 661.692 104.722 661.692 104.348H661.987V108.034H661.692C661.692 107.681 661.544 107.376 661.249 107.12C660.954 106.865 660.571 106.737 660.099 106.737H655.204V115.672H661.662C662.036 115.672 662.36 115.584 662.635 115.407C662.911 115.23 663.137 115.023 663.314 114.788C663.51 114.532 663.648 114.267 663.726 113.991C663.825 113.696 663.874 113.451 663.874 113.254H664.169V116.704H652.078V116.409Z" fill="#B2B2B2"/>
<path d="M629.157 116.409H629.305C629.442 116.409 629.57 116.35 629.688 116.232C629.806 116.115 629.904 115.977 629.983 115.82C630.081 115.662 630.15 115.495 630.189 115.318C630.229 115.122 630.248 114.945 630.248 114.788V99.0696C630.248 98.9319 630.229 98.7747 630.189 98.5977C630.15 98.4208 630.091 98.2537 630.012 98.0964C629.934 97.9391 629.836 97.8113 629.718 97.713C629.6 97.5951 629.462 97.5361 629.305 97.5361H629.157V97.2412H634.849C636.402 97.2412 637.798 97.5164 639.036 98.0669C640.275 98.5977 641.317 99.3251 642.162 100.249C643.027 101.153 643.686 102.195 644.138 103.375C644.59 104.555 644.816 105.783 644.816 107.061C644.816 108.26 644.6 109.44 644.167 110.6C643.735 111.74 643.086 112.763 642.221 113.667C641.356 114.571 640.275 115.308 638.977 115.879C637.68 116.429 636.176 116.704 634.465 116.704H629.157V116.409ZM642.811 107.504C642.811 106.245 642.585 105.056 642.133 103.935C641.68 102.815 641.042 101.842 640.216 101.016C639.41 100.171 638.446 99.5021 637.326 99.0106C636.225 98.5191 635.026 98.2733 633.728 98.2733H632.224V115.672H633.787C634.849 115.672 635.91 115.515 636.972 115.2C638.053 114.866 639.026 114.365 639.891 113.696C640.756 113.008 641.454 112.153 641.985 111.131C642.536 110.108 642.811 108.899 642.811 107.504Z" fill="#B2B2B2"/>
<path d="M599.594 96.9473C601.127 96.9473 602.503 97.2225 603.722 97.773C604.941 98.3038 605.973 99.0312 606.819 99.9552C607.684 100.86 608.342 101.921 608.795 103.14C609.266 104.339 609.502 105.598 609.502 106.915C609.502 108.389 609.227 109.746 608.677 110.984C608.146 112.223 607.409 113.284 606.465 114.169C605.521 115.054 604.42 115.752 603.162 116.263C601.923 116.754 600.596 117 599.181 117C597.667 117 596.301 116.725 595.082 116.174C593.883 115.624 592.86 114.897 592.015 113.992C591.189 113.088 590.55 112.046 590.098 110.866C589.646 109.687 589.42 108.458 589.42 107.18C589.42 105.922 589.646 104.683 590.098 103.464C590.55 102.226 591.209 101.125 592.074 100.162C592.959 99.1983 594.03 98.4217 595.288 97.832C596.547 97.2422 597.982 96.9473 599.594 96.9473ZM599.564 115.968C600.882 115.909 602.032 115.614 603.015 115.083C604.017 114.533 604.853 113.845 605.521 113.019C606.19 112.174 606.681 111.25 606.996 110.247C607.33 109.244 607.497 108.252 607.497 107.269C607.497 106.187 607.3 105.096 606.907 103.995C606.514 102.894 605.954 101.902 605.226 101.017C604.499 100.112 603.624 99.3851 602.602 98.8346C601.599 98.2645 600.469 97.9794 599.21 97.9794C597.992 97.9794 596.9 98.2546 595.937 98.8051C594.974 99.3359 594.148 100.024 593.46 100.869C592.792 101.715 592.28 102.658 591.926 103.7C591.573 104.742 591.396 105.765 591.396 106.767C591.396 107.849 591.602 108.94 592.015 110.041C592.428 111.122 592.998 112.105 593.725 112.99C594.453 113.874 595.308 114.592 596.291 115.142C597.294 115.693 598.385 115.968 599.564 115.968Z" fill="#B2B2B2"/>
<path d="M569.518 116.41H569.665V116.705H566.392V116.41H566.539C566.677 116.41 566.805 116.351 566.923 116.233C567.06 116.115 567.169 115.978 567.247 115.82C567.326 115.663 567.385 115.496 567.424 115.319C567.483 115.122 567.513 114.945 567.513 114.788V99.0701C567.513 98.9325 567.493 98.7753 567.454 98.5983C567.434 98.4214 567.385 98.2543 567.306 98.097C567.228 97.9397 567.119 97.8119 566.982 97.7136C566.844 97.5957 566.677 97.5367 566.48 97.5367H566.333V97.2418H569.311L580.016 114.11V99.0701C580.016 98.9325 579.987 98.7753 579.928 98.5983C579.888 98.4214 579.82 98.2543 579.721 98.097C579.643 97.9397 579.544 97.8119 579.426 97.7136C579.308 97.5957 579.171 97.5367 579.013 97.5367H578.866V97.2418H582.169V97.5367H582.021C581.864 97.5367 581.727 97.5957 581.609 97.7136C581.491 97.8119 581.383 97.9397 581.284 98.097C581.206 98.2543 581.147 98.4214 581.107 98.5983C581.068 98.7753 581.048 98.9325 581.048 99.0701V116.705H579.22L568.545 99.7779V114.788C568.545 114.945 568.564 115.122 568.604 115.319C568.643 115.496 568.702 115.663 568.781 115.82C568.879 115.978 568.987 116.115 569.105 116.233C569.223 116.351 569.361 116.41 569.518 116.41ZM577.686 94.0864C577.451 94.9711 577.215 95.5511 576.979 95.8263C576.762 96.1015 576.448 96.2392 576.035 96.2392C575.799 96.2392 575.534 96.1802 575.239 96.0622C574.944 95.9443 574.639 95.8165 574.325 95.6788C574.01 95.5216 573.696 95.384 573.381 95.266C573.086 95.1284 572.811 95.0596 572.555 95.0596C572.26 95.0596 572.005 95.1677 571.789 95.384C571.592 95.6002 571.366 95.8853 571.11 96.2392L570.963 96.2097C571.238 95.384 571.553 94.804 571.907 94.4698C572.28 94.1159 572.663 93.939 573.057 93.939C573.293 93.939 573.548 93.9979 573.823 94.1159C574.099 94.2339 574.364 94.3715 574.62 94.5288C574.895 94.6664 575.17 94.7942 575.445 94.9121C575.72 95.0301 575.976 95.0891 576.212 95.0891C576.527 95.0891 576.792 94.9908 577.008 94.7942C577.224 94.5779 577.411 94.3322 577.569 94.0569L577.686 94.0864Z" fill="#B2B2B2"/>
<path d="M547.39 116.409H547.537C547.694 116.409 547.832 116.36 547.95 116.262C548.068 116.144 548.166 116.006 548.245 115.849C548.343 115.692 548.412 115.525 548.451 115.348C548.51 115.171 548.54 115.004 548.54 114.846V99.0696C548.54 98.9319 548.51 98.7747 548.451 98.5977C548.412 98.4208 548.343 98.2537 548.245 98.0964C548.166 97.9391 548.068 97.8113 547.95 97.713C547.832 97.5951 547.694 97.5361 547.537 97.5361H547.39V97.2412H558.743V99.9837H558.448C558.409 99.5316 558.232 99.1384 557.917 98.8042C557.603 98.4503 557.111 98.2733 556.443 98.2733H550.516V105.734H555.411C555.863 105.734 556.237 105.597 556.531 105.321C556.846 105.046 557.003 104.722 557.003 104.348H557.298V108.034H557.003C557.003 107.681 556.856 107.376 556.561 107.12C556.266 106.865 555.883 106.737 555.411 106.737H550.516V115.672H556.974C557.347 115.672 557.672 115.584 557.947 115.407C558.222 115.23 558.448 115.023 558.625 114.788C558.822 114.532 558.959 114.267 559.038 113.991C559.136 113.696 559.185 113.451 559.185 113.254H559.48V116.704H547.39V116.409Z" fill="#B2B2B2"/>
<path d="M540.158 111.486C540.158 112.469 539.961 113.314 539.568 114.022C539.175 114.71 538.664 115.27 538.035 115.703C537.425 116.135 536.727 116.45 535.941 116.646C535.174 116.843 534.407 116.941 533.641 116.941C532.854 116.941 532.176 116.863 531.606 116.705C531.036 116.548 530.515 116.401 530.043 116.263C529.728 116.165 529.443 116.086 529.188 116.027C528.932 115.948 528.677 115.909 528.421 115.909V112.547H528.716C528.716 113.294 528.903 113.894 529.276 114.346C529.669 114.779 530.122 115.113 530.633 115.349C531.144 115.585 531.655 115.742 532.166 115.821C532.677 115.88 533.051 115.909 533.287 115.909C534.132 115.909 534.86 115.791 535.469 115.555C536.079 115.3 536.58 114.975 536.973 114.582C537.366 114.169 537.651 113.717 537.828 113.226C538.025 112.734 538.123 112.233 538.123 111.722C538.123 111.073 537.986 110.532 537.71 110.1C537.435 109.647 537.071 109.254 536.619 108.92C536.187 108.586 535.685 108.301 535.115 108.065C534.545 107.829 533.965 107.593 533.375 107.357C532.707 107.102 532.048 106.836 531.4 106.561C530.751 106.286 530.171 105.951 529.66 105.558C529.148 105.145 528.736 104.664 528.421 104.113C528.107 103.543 527.949 102.845 527.949 102.019C527.949 101.154 528.116 100.407 528.451 99.7783C528.785 99.1295 529.227 98.5987 529.778 98.1858C530.348 97.773 530.987 97.4682 531.694 97.2717C532.422 97.0554 533.159 96.9473 533.906 96.9473C534.417 96.9473 534.899 96.9866 535.351 97.0652C535.803 97.1242 536.236 97.2028 536.649 97.3011C536.983 97.3798 537.307 97.4486 537.622 97.5076C537.936 97.5469 538.241 97.5665 538.536 97.5665V100.604H538.241C538.202 99.5817 537.799 98.8936 537.032 98.5397C536.265 98.1662 535.204 97.9794 533.847 97.9794C533.061 97.9794 532.412 98.117 531.901 98.3923C531.409 98.6478 531.016 98.9722 530.721 99.3654C530.426 99.7389 530.22 100.152 530.102 100.604C530.004 101.036 529.955 101.42 529.955 101.754C529.955 102.305 530.072 102.776 530.308 103.17C530.564 103.563 530.898 103.907 531.311 104.202C531.724 104.497 532.196 104.762 532.727 104.998C533.277 105.234 533.847 105.46 534.437 105.676C535.105 105.932 535.784 106.207 536.472 106.502C537.16 106.797 537.769 107.16 538.3 107.593C538.851 108.026 539.293 108.556 539.627 109.185C539.981 109.815 540.158 110.581 540.158 111.486Z" fill="#B2B2B2"/>
<path d="M516.444 97.2412H520.661V97.5361H520.514C520.376 97.5361 520.248 97.5951 520.131 97.713C520.013 97.8113 519.914 97.9391 519.836 98.0964C519.757 98.234 519.688 98.4011 519.629 98.5977C519.59 98.7747 519.57 98.9319 519.57 99.0696V114.788C519.57 114.945 519.59 115.122 519.629 115.318C519.669 115.495 519.727 115.662 519.806 115.82C519.904 115.977 520.003 116.115 520.101 116.232C520.219 116.35 520.357 116.409 520.514 116.409H520.661V116.704H516.444V116.409H516.592C516.749 116.409 516.887 116.36 517.005 116.262C517.123 116.144 517.221 116.006 517.3 115.849C517.398 115.672 517.467 115.495 517.506 115.318C517.545 115.122 517.565 114.945 517.565 114.788V99.0696C517.565 98.9319 517.545 98.7747 517.506 98.5977C517.467 98.4208 517.398 98.2537 517.3 98.0964C517.221 97.9391 517.123 97.8113 517.005 97.713C516.887 97.5951 516.749 97.5361 516.592 97.5361H516.444V97.2412Z" fill="#B2B2B2"/>
<path d="M493.406 116.409H493.554C493.691 116.409 493.819 116.35 493.937 116.232C494.055 116.115 494.153 115.977 494.232 115.82C494.33 115.662 494.399 115.495 494.438 115.318C494.478 115.122 494.497 114.945 494.497 114.788V99.0696C494.497 98.9319 494.478 98.7747 494.438 98.5977C494.399 98.4208 494.34 98.2537 494.261 98.0964C494.183 97.9391 494.085 97.8113 493.967 97.713C493.849 97.5951 493.711 97.5361 493.554 97.5361H493.406V97.2412H499.098C500.651 97.2412 502.047 97.5164 503.285 98.0669C504.524 98.5977 505.566 99.3251 506.411 100.249C507.276 101.153 507.935 102.195 508.387 103.375C508.839 104.555 509.065 105.783 509.065 107.061C509.065 108.26 508.849 109.44 508.416 110.6C507.984 111.74 507.335 112.763 506.47 113.667C505.605 114.571 504.524 115.308 503.226 115.879C501.929 116.429 500.425 116.704 498.714 116.704H493.406V116.409ZM507.06 107.504C507.06 106.245 506.834 105.056 506.382 103.935C505.929 102.815 505.291 101.842 504.465 101.016C503.659 100.171 502.695 99.5021 501.575 99.0106C500.474 98.5191 499.275 98.2733 497.977 98.2733H496.473V115.672H498.036C499.098 115.672 500.159 115.515 501.221 115.2C502.302 114.866 503.275 114.365 504.14 113.696C505.005 113.008 505.703 112.153 506.234 111.131C506.785 110.108 507.06 108.899 507.06 107.504Z" fill="#B2B2B2"/>
<path d="M460.917 116.409H461.065V116.704H457.791V116.409H457.939C458.076 116.409 458.204 116.35 458.322 116.232C458.46 116.115 458.568 115.977 458.647 115.82C458.725 115.662 458.784 115.495 458.824 115.318C458.883 115.122 458.912 114.945 458.912 114.788V99.0696C458.912 98.9319 458.892 98.7747 458.853 98.5977C458.833 98.4208 458.784 98.2537 458.706 98.0964C458.627 97.9391 458.519 97.8113 458.381 97.713C458.244 97.5951 458.076 97.5361 457.88 97.5361H457.732V97.2412H460.711L471.416 114.109V99.0696C471.416 98.9319 471.386 98.7747 471.327 98.5977C471.288 98.4208 471.219 98.2537 471.121 98.0964C471.042 97.9391 470.944 97.8113 470.826 97.713C470.708 97.5951 470.57 97.5361 470.413 97.5361H470.265V97.2412H473.568V97.5361H473.421C473.264 97.5361 473.126 97.5951 473.008 97.713C472.89 97.8113 472.782 97.9391 472.684 98.0964C472.605 98.2537 472.546 98.4208 472.507 98.5977C472.467 98.7747 472.448 98.9319 472.448 99.0696V116.704H470.619L459.944 99.7773V114.788C459.944 114.945 459.964 115.122 460.003 115.318C460.042 115.495 460.101 115.662 460.18 115.82C460.278 115.977 460.386 116.115 460.504 116.232C460.622 116.35 460.76 116.409 460.917 116.409Z" fill="#B2B2B2"/>
<path d="M438.789 116.409H438.937C439.094 116.409 439.231 116.36 439.349 116.262C439.467 116.144 439.566 116.006 439.644 115.849C439.743 115.692 439.811 115.525 439.851 115.348C439.91 115.171 439.939 115.004 439.939 114.846V99.0696C439.939 98.9319 439.91 98.7747 439.851 98.5977C439.811 98.4208 439.743 98.2537 439.644 98.0964C439.566 97.9391 439.467 97.8113 439.349 97.713C439.231 97.5951 439.094 97.5361 438.937 97.5361H438.789V97.2412H450.143V99.9837H449.848C449.808 99.5316 449.631 99.1384 449.317 98.8042C449.002 98.4503 448.511 98.2733 447.842 98.2733H441.915V105.734H446.81C447.262 105.734 447.636 105.597 447.931 105.321C448.245 105.046 448.403 104.722 448.403 104.348H448.698V108.034H448.403C448.403 107.681 448.255 107.376 447.96 107.12C447.665 106.865 447.282 106.737 446.81 106.737H441.915V115.672H448.373C448.747 115.672 449.071 115.584 449.346 115.407C449.622 115.23 449.848 115.023 450.025 114.788C450.221 114.532 450.359 114.267 450.437 113.991C450.536 113.696 450.585 113.451 450.585 113.254H450.88V116.704H438.789V116.409Z" fill="#B2B2B2"/>
<path d="M415.564 116.408H415.711C416.183 116.408 416.419 116.192 416.419 115.76C416.419 115.602 416.39 115.435 416.331 115.258L413.677 108.092H408.516L405.95 115.14C405.891 115.298 405.862 115.445 405.862 115.583C405.862 115.838 405.931 116.045 406.068 116.202C406.206 116.34 406.353 116.408 406.511 116.408H406.658V116.703H403.385V116.408H403.532C403.788 116.408 404.034 116.261 404.269 115.966C404.525 115.651 404.731 115.288 404.889 114.875L411.642 96.8862L418.248 114.698C418.385 115.091 418.572 115.474 418.808 115.848C419.063 116.222 419.388 116.408 419.781 116.408H419.928V116.703H415.564V116.408ZM408.811 107.09H413.352L411.082 100.926L408.811 107.09Z" fill="#B2B2B2"/>
<path d="M395.982 116.409H396.13V116.704H391.942V116.409H392.09C392.247 116.409 392.385 116.35 392.503 116.232C392.621 116.115 392.719 115.977 392.798 115.82C392.896 115.662 392.965 115.495 393.004 115.318C393.043 115.122 393.063 114.945 393.063 114.788V98.3323H389.642C389.328 98.3323 389.052 98.4011 388.816 98.5388C388.581 98.6764 388.384 98.8533 388.227 99.0696C388.069 99.2662 387.951 99.4922 387.873 99.7478C387.794 99.9837 387.755 100.22 387.755 100.456H387.46V97.2412H400.701V100.456H400.406C400.406 100.22 400.367 99.9837 400.288 99.7478C400.209 99.4922 400.091 99.2662 399.934 99.0696C399.777 98.8533 399.58 98.6764 399.344 98.5388C399.108 98.4011 398.833 98.3323 398.519 98.3323H395.039V114.788C395.039 114.945 395.058 115.122 395.098 115.318C395.137 115.495 395.196 115.662 395.275 115.82C395.373 115.977 395.471 116.115 395.57 116.232C395.688 116.35 395.825 116.409 395.982 116.409Z" fill="#B2B2B2"/>
<path d="M382.384 111.486C382.384 112.469 382.188 113.314 381.795 114.022C381.401 114.71 380.89 115.27 380.261 115.703C379.652 116.135 378.954 116.45 378.167 116.646C377.401 116.843 376.634 116.941 375.867 116.941C375.081 116.941 374.403 116.863 373.832 116.705C373.262 116.548 372.741 116.401 372.27 116.263C371.955 116.165 371.67 116.086 371.414 116.027C371.159 115.948 370.903 115.909 370.648 115.909V112.547H370.942C370.942 113.294 371.129 113.894 371.503 114.346C371.896 114.779 372.348 115.113 372.859 115.349C373.37 115.585 373.882 115.742 374.393 115.821C374.904 115.88 375.277 115.909 375.513 115.909C376.359 115.909 377.086 115.791 377.696 115.555C378.305 115.3 378.806 114.975 379.2 114.582C379.593 114.169 379.878 113.717 380.055 113.226C380.251 112.734 380.35 112.233 380.35 111.722C380.35 111.073 380.212 110.532 379.937 110.1C379.662 109.647 379.298 109.254 378.846 108.92C378.413 108.586 377.912 108.301 377.342 108.065C376.772 107.829 376.192 107.593 375.602 107.357C374.933 107.102 374.275 106.836 373.626 106.561C372.977 106.286 372.397 105.951 371.886 105.558C371.375 105.145 370.962 104.664 370.648 104.113C370.333 103.543 370.176 102.845 370.176 102.019C370.176 101.154 370.343 100.407 370.677 99.7783C371.011 99.1295 371.454 98.5987 372.004 98.1858C372.574 97.773 373.213 97.4682 373.921 97.2717C374.648 97.0554 375.386 96.9473 376.133 96.9473C376.644 96.9473 377.125 96.9866 377.578 97.0652C378.03 97.1242 378.462 97.2028 378.875 97.3011C379.209 97.3798 379.534 97.4486 379.848 97.5076C380.163 97.5469 380.468 97.5665 380.763 97.5665V100.604H380.468C380.428 99.5817 380.025 98.8936 379.259 98.5397C378.492 98.1662 377.43 97.9794 376.074 97.9794C375.287 97.9794 374.639 98.117 374.127 98.3923C373.636 98.6478 373.243 98.9722 372.948 99.3654C372.653 99.7389 372.446 100.152 372.328 100.604C372.23 101.036 372.181 101.42 372.181 101.754C372.181 102.305 372.299 102.776 372.535 103.17C372.791 103.563 373.125 103.907 373.538 104.202C373.95 104.497 374.422 104.762 374.953 104.998C375.504 105.234 376.074 105.46 376.663 105.676C377.332 105.932 378.01 106.207 378.698 106.502C379.386 106.797 379.996 107.16 380.527 107.593C381.077 108.026 381.519 108.556 381.854 109.185C382.208 109.815 382.384 110.581 382.384 111.486Z" fill="#B2B2B2"/>
<path d="M358.67 97.2412H362.887V97.5361H362.739C362.602 97.5361 362.474 97.5951 362.356 97.713C362.238 97.8113 362.14 97.9391 362.061 98.0964C361.983 98.234 361.914 98.4011 361.855 98.5977C361.815 98.7747 361.796 98.9319 361.796 99.0696V114.788C361.796 114.945 361.815 115.122 361.855 115.318C361.894 115.495 361.953 115.662 362.032 115.82C362.13 115.977 362.228 116.115 362.327 116.232C362.445 116.35 362.582 116.409 362.739 116.409H362.887V116.704H358.67V116.409H358.817C358.975 116.409 359.112 116.36 359.23 116.262C359.348 116.144 359.446 116.006 359.525 115.849C359.623 115.672 359.692 115.495 359.732 115.318C359.771 115.122 359.791 114.945 359.791 114.788V99.0696C359.791 98.9319 359.771 98.7747 359.732 98.5977C359.692 98.4208 359.623 98.2537 359.525 98.0964C359.446 97.9391 359.348 97.8113 359.23 97.713C359.112 97.5951 358.975 97.5361 358.817 97.5361H358.67V97.2412Z" fill="#B2B2B2"/>
<path d="M340.126 116.409H340.273C340.431 116.409 340.568 116.36 340.686 116.262C340.804 116.144 340.903 116.006 340.981 115.849C341.079 115.692 341.148 115.525 341.188 115.348C341.247 115.171 341.276 115.004 341.276 114.846V99.0696C341.276 98.9319 341.247 98.7747 341.188 98.5977C341.148 98.4208 341.079 98.2537 340.981 98.0964C340.903 97.9391 340.804 97.8113 340.686 97.713C340.568 97.5951 340.431 97.5361 340.273 97.5361H340.126V97.2412H344.372V97.5361H344.225C344.068 97.5361 343.93 97.5951 343.812 97.713C343.694 97.8113 343.596 97.9391 343.517 98.0964C343.439 98.2537 343.37 98.4208 343.311 98.5977C343.272 98.7747 343.252 98.9319 343.252 99.0696V115.613H349.71C350.084 115.613 350.408 115.525 350.683 115.348C350.958 115.171 351.185 114.955 351.361 114.699C351.558 114.424 351.696 114.139 351.774 113.844C351.873 113.529 351.922 113.244 351.922 112.989H352.217V116.704H340.126V116.409Z" fill="#B2B2B2"/>
<path d="M329.278 116.408H329.425C329.897 116.408 330.133 116.192 330.133 115.76C330.133 115.602 330.104 115.435 330.045 115.258L327.39 108.092H322.23L319.664 115.14C319.605 115.298 319.576 115.445 319.576 115.583C319.576 115.838 319.645 116.045 319.782 116.202C319.92 116.34 320.067 116.408 320.225 116.408H320.372V116.703H317.099V116.408H317.246C317.502 116.408 317.747 116.261 317.983 115.966C318.239 115.651 318.445 115.288 318.603 114.875L325.356 96.8862L331.961 114.698C332.099 115.091 332.286 115.474 332.522 115.848C332.777 116.222 333.102 116.408 333.495 116.408H333.642V116.703H329.278V116.408ZM322.525 107.09H327.066L324.795 100.926L322.525 107.09Z" fill="#B2B2B2"/>
<path d="M306.242 97.2412H310.459V97.5361H310.312C310.174 97.5361 310.046 97.5951 309.928 97.713C309.81 97.8113 309.712 97.9391 309.633 98.0964C309.555 98.234 309.486 98.4011 309.427 98.5977C309.388 98.7747 309.368 98.9319 309.368 99.0696V114.788C309.368 114.945 309.388 115.122 309.427 115.318C309.466 115.495 309.525 115.662 309.604 115.82C309.702 115.977 309.801 116.115 309.899 116.232C310.017 116.35 310.154 116.409 310.312 116.409H310.459V116.704H306.242V116.409H306.39C306.547 116.409 306.685 116.36 306.802 116.262C306.92 116.144 307.019 116.006 307.097 115.849C307.196 115.672 307.264 115.495 307.304 115.318C307.343 115.122 307.363 114.945 307.363 114.788V99.0696C307.363 98.9319 307.343 98.7747 307.304 98.5977C307.264 98.4208 307.196 98.2537 307.097 98.0964C307.019 97.9391 306.92 97.8113 306.802 97.713C306.685 97.5951 306.547 97.5361 306.39 97.5361H306.242V97.2412Z" fill="#B2B2B2"/>
<path d="M293.413 98.0089C291.958 98.0089 290.69 98.2743 289.609 98.8051C288.547 99.3163 287.662 99.9945 286.955 100.84C286.247 101.666 285.716 102.599 285.362 103.641C285.028 104.683 284.861 105.715 284.861 106.738C284.861 107.898 285.087 109.038 285.539 110.159C285.991 111.26 286.61 112.243 287.397 113.108C288.203 113.953 289.137 114.641 290.198 115.172C291.26 115.683 292.41 115.939 293.649 115.939C294.003 115.939 294.415 115.899 294.887 115.821C295.379 115.742 295.86 115.595 296.332 115.378C296.804 115.142 297.237 114.818 297.63 114.405C298.043 113.992 298.357 113.452 298.573 112.783H298.868V116.057C298.573 116.057 298.259 116.096 297.925 116.174C297.61 116.253 297.256 116.342 296.863 116.44C296.352 116.577 295.782 116.705 295.153 116.823C294.543 116.941 293.894 117 293.206 117C291.496 117 289.992 116.705 288.694 116.115C287.397 115.526 286.316 114.759 285.451 113.815C284.586 112.872 283.937 111.81 283.504 110.63C283.072 109.431 282.855 108.222 282.855 107.003C282.855 105.784 283.072 104.575 283.504 103.376C283.937 102.177 284.595 101.105 285.48 100.162C286.365 99.1983 287.475 98.4217 288.812 97.832C290.149 97.2422 291.722 96.9473 293.531 96.9473C294.179 96.9473 294.759 97.0062 295.271 97.1242C295.801 97.2422 296.273 97.3601 296.686 97.4781C296.981 97.5764 297.246 97.655 297.482 97.714C297.738 97.7533 297.984 97.773 298.22 97.773V101.046H297.925C297.807 100.437 297.59 99.9355 297.276 99.5423C296.961 99.1295 296.588 98.8149 296.155 98.5987C295.742 98.3824 295.29 98.235 294.799 98.1563C294.327 98.058 293.865 98.0089 293.413 98.0089Z" fill="#B2B2B2"/>
<path d="M264.98 116.409H265.128C265.285 116.409 265.423 116.36 265.541 116.262C265.659 116.144 265.757 116.006 265.836 115.849C265.934 115.692 266.003 115.525 266.042 115.348C266.101 115.171 266.131 115.004 266.131 114.846V99.0696C266.131 98.9319 266.101 98.7747 266.042 98.5977C266.003 98.4208 265.934 98.2537 265.836 98.0964C265.757 97.9391 265.659 97.8113 265.541 97.713C265.423 97.5951 265.285 97.5361 265.128 97.5361H264.98V97.2412H276.334V99.9837H276.039C276 99.5316 275.823 99.1384 275.508 98.8042C275.194 98.4503 274.702 98.2733 274.034 98.2733H268.106V105.734H273.002C273.454 105.734 273.827 105.597 274.122 105.321C274.437 105.046 274.594 104.722 274.594 104.348H274.889V108.034H274.594C274.594 107.681 274.447 107.376 274.152 107.12C273.857 106.865 273.473 106.737 273.002 106.737H268.106V115.672H274.565C274.938 115.672 275.263 115.584 275.538 115.407C275.813 115.23 276.039 115.023 276.216 114.788C276.413 114.532 276.55 114.267 276.629 113.991C276.727 113.696 276.776 113.451 276.776 113.254H277.071V116.704H264.98V116.409Z" fill="#B2B2B2"/>
<path d="M246.898 97.2412H251.086C253.268 97.2412 254.92 97.6639 256.04 98.5093C257.18 99.335 257.751 100.515 257.751 102.048C257.751 102.874 257.554 103.611 257.161 104.26C256.768 104.908 256.247 105.459 255.598 105.911C254.969 106.344 254.251 106.678 253.445 106.914C252.659 107.15 251.872 107.268 251.086 107.268H249.965V114.788C249.965 114.945 249.985 115.122 250.024 115.318C250.064 115.495 250.123 115.662 250.201 115.82C250.3 115.977 250.398 116.115 250.496 116.232C250.614 116.35 250.752 116.409 250.909 116.409H251.056V116.704H246.898V116.409H247.046C247.184 116.409 247.311 116.35 247.429 116.232C247.547 116.115 247.646 115.977 247.724 115.82C247.803 115.662 247.862 115.495 247.901 115.318C247.94 115.122 247.96 114.945 247.96 114.788V99.0696C247.96 98.7943 247.881 98.4798 247.724 98.1259C247.567 97.772 247.341 97.5754 247.046 97.5361H246.898V97.2412ZM249.965 98.2733V106.236H250.85C251.636 106.236 252.334 106.127 252.944 105.911C253.573 105.695 254.094 105.41 254.507 105.056C254.92 104.702 255.234 104.299 255.45 103.847C255.667 103.395 255.775 102.933 255.775 102.461C255.775 101.891 255.676 101.36 255.48 100.868C255.303 100.357 254.998 99.9149 254.566 99.5414C254.153 99.1482 253.602 98.8435 252.914 98.6272C252.226 98.3913 251.381 98.2733 250.378 98.2733H249.965Z" fill="#B2B2B2"/>
<path d="M239.696 111.486C239.696 112.469 239.499 113.314 239.106 114.022C238.713 114.71 238.202 115.27 237.573 115.703C236.963 116.135 236.265 116.45 235.479 116.646C234.712 116.843 233.946 116.941 233.179 116.941C232.392 116.941 231.714 116.863 231.144 116.705C230.574 116.548 230.053 116.401 229.581 116.263C229.267 116.165 228.981 116.086 228.726 116.027C228.47 115.948 228.215 115.909 227.959 115.909V112.547H228.254C228.254 113.294 228.441 113.894 228.814 114.346C229.208 114.779 229.66 115.113 230.171 115.349C230.682 115.585 231.193 115.742 231.704 115.821C232.215 115.88 232.589 115.909 232.825 115.909C233.67 115.909 234.398 115.791 235.007 115.555C235.617 115.3 236.118 114.975 236.511 114.582C236.904 114.169 237.189 113.717 237.366 113.226C237.563 112.734 237.661 112.233 237.661 111.722C237.661 111.073 237.524 110.532 237.248 110.1C236.973 109.647 236.609 109.254 236.157 108.92C235.725 108.586 235.223 108.301 234.653 108.065C234.083 107.829 233.503 107.593 232.913 107.357C232.245 107.102 231.586 106.836 230.938 106.561C230.289 106.286 229.709 105.951 229.198 105.558C228.687 105.145 228.274 104.664 227.959 104.113C227.645 103.543 227.487 102.845 227.487 102.019C227.487 101.154 227.654 100.407 227.989 99.7783C228.323 99.1295 228.765 98.5987 229.316 98.1858C229.886 97.773 230.525 97.4682 231.232 97.2717C231.96 97.0554 232.697 96.9473 233.444 96.9473C233.955 96.9473 234.437 96.9866 234.889 97.0652C235.341 97.1242 235.774 97.2028 236.187 97.3011C236.521 97.3798 236.845 97.4486 237.16 97.5076C237.474 97.5469 237.779 97.5665 238.074 97.5665V100.604H237.779C237.74 99.5817 237.337 98.8936 236.57 98.5397C235.803 98.1662 234.742 97.9794 233.385 97.9794C232.599 97.9794 231.95 98.117 231.439 98.3923C230.947 98.6478 230.554 98.9722 230.259 99.3654C229.964 99.7389 229.758 100.152 229.64 100.604C229.542 101.036 229.493 101.42 229.493 101.754C229.493 102.305 229.611 102.776 229.846 103.17C230.102 103.563 230.436 103.907 230.849 104.202C231.262 104.497 231.734 104.762 232.265 104.998C232.815 105.234 233.385 105.46 233.975 105.676C234.643 105.932 235.322 106.207 236.01 106.502C236.698 106.797 237.307 107.16 237.838 107.593C238.389 108.026 238.831 108.556 239.165 109.185C239.519 109.815 239.696 110.581 239.696 111.486Z" fill="#B2B2B2"/>
<path d="M208.722 116.409H208.869C209.026 116.409 209.164 116.36 209.282 116.262C209.4 116.144 209.498 116.006 209.577 115.849C209.675 115.692 209.744 115.525 209.783 115.348C209.842 115.171 209.872 115.004 209.872 114.846V99.0696C209.872 98.9319 209.842 98.7747 209.783 98.5977C209.744 98.4208 209.675 98.2537 209.577 98.0964C209.498 97.9391 209.4 97.8113 209.282 97.713C209.164 97.5951 209.026 97.5361 208.869 97.5361H208.722V97.2412H220.075V99.9837H219.78C219.741 99.5316 219.564 99.1384 219.249 98.8042C218.935 98.4503 218.443 98.2733 217.775 98.2733H211.848V105.734H216.743C217.195 105.734 217.569 105.597 217.863 105.321C218.178 105.046 218.335 104.722 218.335 104.348H218.63V108.034H218.335C218.335 107.681 218.188 107.376 217.893 107.12C217.598 106.865 217.215 106.737 216.743 106.737H211.848V115.672H218.306C218.679 115.672 219.004 115.584 219.279 115.407C219.554 115.23 219.78 115.023 219.957 114.788C220.154 114.532 220.291 114.267 220.37 113.991C220.468 113.696 220.518 113.451 220.518 113.254H220.812V116.704H208.722V116.409Z" fill="#B2B2B2"/>
</svg>
